<?xml version="1.0" encoding="iso-8859-1"?>
<!-- Generator: Adobe Illustrator 19.0.0, SVG Export Plug-In . SVG Version: 6.00 Build 0)  -->
<svg version="1.1" id="Capa_1" xmlns="http://www.w3.org/2000/svg" xmlns:xlink="http://www.w3.org/1999/xlink" x="0px" y="0px"
	 viewBox="0 0 512 512" style="enable-background:new 0 0 512 512;" xml:space="preserve">
<g>
	<g>
		<path fill="#333" d="M512,256c0-22.771-7.403-44.87-20.979-62.974c2.704-22.466-1.934-45.307-13.319-65.026
			c-11.386-19.721-28.848-35.156-49.654-44.048C419.156,63.146,403.721,45.684,384,34.298
			c-15.954-9.212-34.078-14.081-52.412-14.081c-4.204,0-8.426,0.255-12.615,0.761C300.87,7.405,278.771,0,256,0
			s-44.87,7.405-62.973,20.978c-4.189-0.506-8.411-0.761-12.615-0.761c-18.334,0-36.458,4.869-52.412,14.081
			c-19.721,11.386-35.156,28.848-44.048,49.654C63.146,92.844,45.684,108.279,34.298,128c-11.386,19.72-16.023,42.561-13.319,65.026
			C7.403,211.13,0,233.229,0,256s7.403,44.87,20.979,62.974C18.274,341.439,22.912,364.28,34.298,384
			c11.386,19.721,28.848,35.156,49.654,44.048c8.892,20.807,24.327,38.269,44.048,49.654c15.954,9.212,34.078,14.081,52.412,14.081
			c4.204,0,8.426-0.255,12.615-0.761C211.13,504.595,233.229,512,256,512s44.87-7.405,62.973-20.978
			c4.189,0.506,8.41,0.761,12.615,0.761c18.334,0,36.458-4.869,52.412-14.081c19.721-11.386,35.156-28.848,44.048-49.654
			c20.807-8.892,38.269-24.327,49.654-44.048c11.386-19.72,16.023-42.561,13.319-65.026C504.597,300.87,512,278.771,512,256z
			 M151.644,331.25c-8.284,0-15-6.716-15-15s6.716-15,15-15s15,6.716,15,15S159.928,331.25,151.644,331.25z M151.644,210.75
			c-8.284,0-15-6.716-15-15s6.716-15,15-15s15,6.716,15,15S159.928,210.75,151.644,210.75z M256,391.5c-8.284,0-15-6.716-15-15
			s6.716-15,15-15s15,6.716,15,15S264.284,391.5,256,391.5z M256,271c-8.284,0-15-6.716-15-15s6.716-15,15-15s15,6.716,15,15
			S264.284,271,256,271z M256,150.5c-8.284,0-15-6.716-15-15s6.716-15,15-15s15,6.716,15,15S264.284,150.5,256,150.5z
			 M360.356,331.25c-8.284,0-15-6.716-15-15s6.716-15,15-15s15,6.716,15,15S368.64,331.25,360.356,331.25z M360.356,210.75
			c-8.284,0-15-6.716-15-15s6.716-15,15-15s15,6.716,15,15S368.64,210.75,360.356,210.75z"/>
	</g>
</g>
<g>
</g>
<g>
</g>
<g>
</g>
<g>
</g>
<g>
</g>
<g>
</g>
<g>
</g>
<g>
</g>
<g>
</g>
<g>
</g>
<g>
</g>
<g>
</g>
<g>
</g>
<g>
</g>
<g>
</g>
</svg>
