<svg height="512" viewBox="0 0 34 56" width="512" xmlns="http://www.w3.org/2000/svg"><g id="Page-1" fill="#333" fill-rule="evenodd"><g id="003---Elderly-Woman" fill="rgb(0,0,0)" fill-rule="nonzero" transform="translate(-1)"><path id="Shape" d="m21 27c0 1.1045695.8954305 2 2 2h5c1.1045695 0 2-.8954305 2-2v-4h-8c-.5522847 0-1 .4477153-1 1z"/><path id="Shape" d="m4 19.68c.00083081-3.2186984 1.78309392-6.1725457 4.63019538-7.6738895 2.84710142-1.5013439 6.29130642-1.3035366 8.94780462.5138895.2551018.1694133.5868982.1694133.842 0 2.6987683-1.8436443 6.2040765-2.0160522 9.0707397-.4461424 2.8666633 1.5699097 4.6092275 4.6162813 4.5092603 7.8831424v3.043c.6886134.0014429 1.3695057.1451112 2 .422v-3.422c-.0049649-8.2822139-6.7177861-14.99503514-15-15-2.983 0-5.817-.1-9.453 1.978-4.66089017 2.68119616-7.53767414 7.6449541-7.547 13.022v3.423c.63023394-.2778131 1.31125215-.4218484 2-.423z"/><path id="Shape" d="m6 23v4c0 1.1045695.8954305 2 2 2h5c1.1045695 0 2-.8954305 2-2v-3c0-.5522847-.4477153-1-1-1z"/><path id="Shape" d="m19 3c2.0355681.00329923 4.0540952.37110468 5.96 1.086-1.4081623-2.52256242-4.0710136-4.08574055-6.96-4.08574055s-5.5518377 1.56317813-6.96 4.08574055c1.9059048-.71489532 3.9244319-1.08270077 5.96-1.086z"/><path id="Shape" d="m30 19.957c.0961963-2.5069133-1.2184668-4.8568814-3.4051236-6.0866782-2.1866568-1.2297969-4.8776134-1.132628-6.9698764.2516782-.933084.6790685-2.1902997.7054018-3.151.066-2.0424232-1.410275-4.698437-1.5716686-6.89659381-.4190738-2.19815682 1.1525947-3.57588625 3.4290654-3.57740619 5.9110738v1.32h8c1.2667854.0052514 2.3937454.8056491 2.816 2h2.367c.4223781-1.1946951 1.5498471-1.9951701 2.817-2h8z"/><path id="Shape" d="m34.247 26.018c-.5683839-.645826-1.3866806-1.0165541-2.247-1.018v2c0 2.209139-1.790861 4-4 4h-5c-2.209139 0-4-1.790861-4-4v-2h-2v2c0 2.209139-1.790861 4-4 4h-5c-2.209139 0-4-1.790861-4-4v-2c-.86133248.0013782-1.68052094.3729087-2.249 1.02-.79497584.9042209-.98162292 2.192321-.476 3.285.45780083.9978215 1.43980818 1.6515899 2.537 1.689 1.20217031.0778904 2.19190946.9743752 2.388 2.163.53947595 3.1644234 2.94724829 5.6837986 6.084 6.366.5825506.1346801 1.1138261.4346945 1.53.864 1.1192053 1.0825402 2.6297705 1.6646094 4.186 1.613 1.5579438.0529784 3.0705742-.5291912 4.191-1.613.4165998-.4294746.9481429-.7297913 1.531-.865 3.1363494-.6819181 5.5438118-3.2009873 6.083-6.365.1927137-1.1757771 1.1649371-2.0670163 2.353-2.157 1.1074843-.0308434 2.1021192-.6857996 2.568-1.691.5066545-1.0949868.3187684-2.38587-.479-3.291z"/><path id="Shape" d="m27 45h-3.023c-.082 2.175-.468 7.391-2.225 11h5.248v-5c0-.5522847.4477153-1 1-1s1 .4477153 1 1v5h4c.5522847 0 1-.4477153 1-1v-3c-.0044086-3.8641657-3.1358343-6.9955914-7-7z"/><path id="Shape" d="m14.333 48.6c.2229299 2.5913068.9736559 5.1096078 2.206 7.4h2.922c1.2323441-2.2903922 1.9830701-4.8086932 2.206-7.4-2.4158683.5306691-4.9181317.5306691-7.334 0z"/><path id="Shape" d="m9 45c-3.86416566.0044086-6.99559136 3.1358343-7 7v3c0 .5522847.44771525 1 1 1h4v-5c0-.5522847.44771525-1 1-1s1 .4477153 1 1v5h5.248c-1.757-3.609-2.143-8.825-2.225-11z"/><path id="Shape" d="m21.883 46.474c.081-1.056.106-1.86.113-2.232-.1891208-.3163374-.3607129-.6428298-.514-.978-2.2174975.9819115-4.7465025.9819115-6.964 0-.1532871.3351702-.3248792.6616626-.514.978.007.372.032 1.176.113 2.232 2.5411956.7011043 5.2248044.7011043 7.766 0z"/></g></g></svg>